# xmcd
#
# Track frame offsets: 
#        150
#        14589
#        28128
#        43467
#        58450
#        71967
#        84739
#        99370
#        110862
#        126523
#        142423
#        158163
#        172620
#        186662
#        200387
#        216085
#        230705
#        244214
#        260804
#        273805
#        285382
#        298873
#        311675
#        324587
#        337472
#
# Disc length: 4648 seconds
#
# Revision: 1
# Processed by: cddbd v1.5.2PL0 Copyright (c) Steve Scherf et al.
# Submitted via: ExactAudioCopy v0.99pb5
#
DISCID=ab122619
DTITLE=Glenn Miller - In The Mood
DYEAR=2005
DGENRE=Jazz
TTITLE0=A String Of Pearls
TTITLE1=Glen Island Special
TTITLE2=Chattanooga Choo Choo
TTITLE3=Perfidia
TTITLE4=I Know Why
TTITLE5=And The Angels Sing
TTITLE6=My Blue Heaven
TTITLE7=Fools Rush In
TTITLE8=The Story Of A Starry Night
TTITLE9=In The Mood
TTITLE10=Frenesi
TTITLE11=Elmer's Tune
TTITLE12=At Last
TTITLE13=Rhapsody In Blue
TTITLE14=Song Of The Volga Boatmen
TTITLE15=Falling Leaves
TTITLE16=It Must Be Jelly ('Cause Jam Don't Shake Like That)
TTITLE17=I Dreamt I Dwelt In Harlem
TTITLE18=Five O'Clock Whistle
TTITLE19=Shake Down The Stars
TTITLE20=The Lady's In Love With You
TTITLE21=Wishing
TTITLE22=Stairway To The Stars
TTITLE23=Moon Love
TTITLE24=Over The Rainbow
EXTD=YEAR: 2005
EXTT0=
EXTT1=
EXTT2=
EXTT3=
EXTT4=
EXTT5=
EXTT6=
EXTT7=
EXTT8=
EXTT9=
EXTT10=
EXTT11=
EXTT12=
EXTT13=
EXTT14=
EXTT15=
EXTT16=
EXTT17=
EXTT18=
EXTT19=
EXTT20=
EXTT21=
EXTT22=
EXTT23=
EXTT24=
PLAYORDER=
